<svg width="32" height="33" viewBox="0 0 32 33" fill="none" xmlns="http://www.w3.org/2000/svg">
<path fill-rule="evenodd" clip-rule="evenodd" d="M16 0.39209C7.16344 0.39209 0 7.55553 0 16.3921C0 25.2286 7.16344 32.3921 16 32.3921C24.8366 32.3921 32 25.2286 32 16.3921C32 7.55553 24.8366 0.39209 16 0.39209ZM12.4823 7.91044C13.3925 7.86902 13.6834 7.85889 16.0009 7.85889H15.9983C18.3165 7.85889 18.6063 7.86902 19.5165 7.91044C20.425 7.95204 21.0454 8.09587 21.5894 8.30689C22.1512 8.52467 22.6259 8.81623 23.1005 9.2909C23.5752 9.76522 23.8668 10.2413 24.0854 10.8026C24.2952 11.3451 24.4392 11.9652 24.4819 12.8737C24.5228 13.7839 24.5335 14.0748 24.5335 16.3923C24.5335 18.7098 24.5228 19 24.4819 19.9102C24.4392 20.8183 24.2952 21.4386 24.0854 21.9813C23.8668 22.5424 23.5752 23.0185 23.1005 23.4928C22.6264 23.9675 22.151 24.2598 21.59 24.4777C21.047 24.6887 20.4262 24.8326 19.5178 24.8742C18.6075 24.9156 18.3176 24.9257 15.9999 24.9257C13.6825 24.9257 13.3918 24.9156 12.4816 24.8742C11.5733 24.8326 10.953 24.6887 10.4101 24.4777C9.84921 24.2598 9.37312 23.9675 8.89898 23.4928C8.42449 23.0185 8.13293 22.5424 7.91479 21.9812C7.70394 21.4386 7.56012 20.8185 7.51834 19.91C7.4771 18.9998 7.46679 18.7098 7.46679 16.3923C7.46679 14.0748 7.47745 13.7837 7.51817 12.8735C7.55905 11.9654 7.70306 11.3451 7.91461 10.8024C8.13328 10.2413 8.42484 9.76522 8.89951 9.2909C9.37383 8.81641 9.84992 8.52485 10.4112 8.30689C10.9538 8.09587 11.5739 7.95204 12.4823 7.91044Z" fill="#646464"/>
<path fill-rule="evenodd" clip-rule="evenodd" d="M15.2355 9.39618C15.3841 9.39594 15.544 9.39602 15.7166 9.39609L16.001 9.39618C18.2794 9.39618 18.5495 9.40435 19.4492 9.44524C20.2812 9.48329 20.7328 9.62231 21.0336 9.73911C21.4318 9.89378 21.7157 10.0787 22.0142 10.3773C22.3129 10.676 22.4978 10.9605 22.6528 11.3587C22.7696 11.6591 22.9088 12.1107 22.9467 12.9427C22.9876 13.8423 22.9964 14.1125 22.9964 16.3898C22.9964 18.6672 22.9876 18.9374 22.9467 19.837C22.9086 20.669 22.7696 21.1206 22.6528 21.421C22.4981 21.8192 22.3129 22.1028 22.0142 22.4013C21.7155 22.7 21.432 22.8848 21.0336 23.0395C20.7331 23.1569 20.2812 23.2955 19.4492 23.3336C18.5496 23.3745 18.2794 23.3833 16.001 23.3833C13.7224 23.3833 13.4524 23.3745 12.5528 23.3336C11.7208 23.2952 11.2692 23.1561 10.9682 23.0393C10.57 22.8847 10.2856 22.6998 9.98689 22.4011C9.68822 22.1024 9.50333 21.8187 9.34831 21.4203C9.23151 21.1199 9.09231 20.6683 9.05444 19.8363C9.01355 18.9367 9.00537 18.6665 9.00537 16.3877C9.00537 14.1089 9.01355 13.8401 9.05444 12.9406C9.09248 12.1086 9.23151 11.657 9.34831 11.3562C9.50298 10.958 9.68822 10.6735 9.98689 10.3749C10.2856 10.0762 10.57 9.89129 10.9682 9.73627C11.269 9.61893 11.7208 9.48027 12.5528 9.44204C13.34 9.40649 13.6451 9.39582 15.2355 9.39404V9.39618ZM20.5559 10.813C19.9906 10.813 19.5319 11.2712 19.5319 11.8367C19.5319 12.402 19.9906 12.8607 20.5559 12.8607C21.1212 12.8607 21.5799 12.402 21.5799 11.8367C21.5799 11.2713 21.1212 10.8127 20.5559 10.8127V10.813ZM11.6188 16.3909C11.6188 13.9708 13.5809 12.0087 16.0009 12.0086C18.421 12.0086 20.3826 13.9708 20.3826 16.3909C20.3826 18.811 18.4212 20.7723 16.0011 20.7723C13.581 20.7723 11.6188 18.811 11.6188 16.3909Z" fill="#646464"/>
<path fill-rule="evenodd" clip-rule="evenodd" d="M16.0007 13.5471C17.5716 13.5471 18.8452 14.8206 18.8452 16.3916C18.8452 17.9625 17.5716 19.2361 16.0007 19.2361C14.4297 19.2361 13.1562 17.9625 13.1562 16.3916C13.1562 14.8206 14.4297 13.5471 16.0007 13.5471V13.5471Z" fill="#646464"/>
</svg>
