<svg width="32" height="33" viewBox="0 0 32 33" fill="none" xmlns="http://www.w3.org/2000/svg">
<path fill-rule="evenodd" clip-rule="evenodd" d="M16 0.39209C7.16344 0.39209 0 7.55553 0 16.3921C0 25.2286 7.16344 32.3921 16 32.3921C24.8366 32.3921 32 25.2286 32 16.3921C32 7.55553 24.8366 0.39209 16 0.39209ZM15.5544 13.9503L15.5208 13.3967C15.4201 11.9618 16.3042 10.6511 17.7032 10.1427C18.218 9.9619 19.091 9.9393 19.6617 10.0975C19.8856 10.1653 20.3108 10.3912 20.613 10.5946L21.1614 10.9675L21.7658 10.7754C22.1015 10.6737 22.5492 10.5042 22.7506 10.3912C22.9409 10.2896 23.1088 10.2331 23.1088 10.267C23.1088 10.459 22.6947 11.1144 22.3477 11.4759C21.8777 11.9844 22.012 12.0296 22.9633 11.6906C23.534 11.4985 23.5452 11.4985 23.4333 11.7132C23.3662 11.8262 23.0192 12.2216 22.6499 12.5832C22.0232 13.2046 21.9896 13.2724 21.9896 13.7922C21.9896 14.5944 21.6091 16.2666 21.2286 17.1818C20.5235 18.8992 19.0126 20.6731 17.5017 21.5657C15.3753 22.8198 12.5438 23.1362 10.16 22.4018C9.36539 22.1532 8.00001 21.5205 8.00001 21.4075C8.00001 21.3736 8.4141 21.3284 8.91773 21.3171C9.96974 21.2945 11.0218 21.0007 11.9171 20.481L12.5214 20.1194L11.8276 19.8822C10.8427 19.5432 9.95855 18.7636 9.73472 18.0292C9.66757 17.7919 9.68995 17.7806 10.3167 17.7806L10.9658 17.7693L10.4174 17.5094C9.76829 17.1818 9.17514 16.6281 8.88415 16.0632C8.67151 15.6564 8.40291 14.6283 8.48125 14.5492C8.50364 14.5153 8.73866 14.5831 9.00726 14.6735C9.77949 14.9559 9.88021 14.8881 9.43254 14.4136C8.59317 13.5549 8.33576 12.2781 8.73866 11.0692L8.92892 10.5268L9.66757 11.2612C11.1784 12.7414 12.9579 13.6227 14.9948 13.8825L15.5544 13.9503Z" fill="#646464"/>
</svg>
