<svg width="32" height="33" viewBox="0 0 32 33" fill="none" xmlns="http://www.w3.org/2000/svg">
<path fill-rule="evenodd" clip-rule="evenodd" d="M16 0.39209C7.16344 0.39209 0 7.55553 0 16.3921C0 25.2286 7.16344 32.3921 16 32.3921C24.8366 32.3921 32 25.2286 32 16.3921C32 7.55553 24.8366 0.39209 16 0.39209ZM22.6679 10.8924C23.4022 11.0939 23.9805 11.6877 24.1768 12.4417C24.5335 13.8082 24.5335 16.6595 24.5335 16.6595C24.5335 16.6595 24.5335 19.5107 24.1768 20.8774C23.9805 21.6314 23.4022 22.2251 22.6679 22.4268C21.3371 22.7929 16.0001 22.7929 16.0001 22.7929C16.0001 22.7929 10.6632 22.7929 9.3323 22.4268C8.59795 22.2251 8.01962 21.6314 7.82335 20.8774C7.4668 19.5107 7.4668 16.6595 7.4668 16.6595C7.4668 16.6595 7.4668 13.8082 7.82335 12.4417C8.01962 11.6877 8.59795 11.0939 9.3323 10.8924C10.6632 10.5262 16.0001 10.5262 16.0001 10.5262C16.0001 10.5262 21.3371 10.5262 22.6679 10.8924Z" fill="#646464"/>
<path fill-rule="evenodd" clip-rule="evenodd" d="M14.3999 19.5914V14.2581L18.6666 16.9248L14.3999 19.5914Z" fill="#646464"/>
</svg>
