<svg width="70" height="13" viewBox="0 0 70 13" fill="none" xmlns="http://www.w3.org/2000/svg">
<path d="M13.09 5.284C12.9407 5.44267 12.7073 5.68067 12.39 5.998L12.348 6.04C11.5173 6.852 10.892 7.45867 10.472 7.86C10.3413 7.99067 10.2433 8.09333 10.178 8.168C10.1407 8.20533 10.122 8.26133 10.122 8.336L10.836 12.48V12.508C10.8267 12.5173 10.78 12.4987 10.696 12.452C10.528 12.368 10.2853 12.242 9.968 12.074L7.07 10.548C7.00467 10.5107 6.93467 10.5153 6.86 10.562L5.432 11.318C4.46133 11.8313 3.72867 12.214 3.234 12.466C3.21533 12.4847 3.19667 12.494 3.178 12.494C3.13133 12.5127 3.11733 12.4753 3.136 12.382L3.29 11.416C3.53267 10.0347 3.71 8.99867 3.822 8.308C3.83133 8.28933 3.82667 8.266 3.808 8.238C3.79867 8.20067 3.78467 8.17267 3.766 8.154L3.29 7.692C2.66467 7.08533 2.198 6.62333 1.89 6.306C1.60067 6.026 1.274 5.68067 0.91 5.27C0.882 5.242 0.872667 5.21867 0.882 5.2C0.891333 5.172 0.914667 5.15333 0.952 5.144L4.312 4.654C4.57333 4.60733 4.76933 4.57933 4.9 4.57C4.956 4.56067 4.998 4.54667 5.026 4.528C5.054 4.50933 5.082 4.472 5.11 4.416C5.894 2.81067 6.48667 1.60667 6.888 0.803999L6.93 0.733999C6.93933 0.715333 6.95333 0.706 6.972 0.706C6.99067 0.696666 7.00467 0.701333 7.014 0.719999C7.03267 0.738666 7.042 0.757333 7.042 0.776L8.848 4.43C8.88533 4.514 8.95067 4.56067 9.044 4.57L13.048 5.158C13.0853 5.158 13.1087 5.172 13.118 5.2C13.1273 5.21867 13.118 5.24667 13.09 5.284ZM27.09 5.284C26.9407 5.44267 26.7073 5.68067 26.39 5.998L26.348 6.04C25.5173 6.852 24.892 7.45867 24.472 7.86C24.3413 7.99067 24.2433 8.09333 24.178 8.168C24.1407 8.20533 24.122 8.26133 24.122 8.336L24.836 12.48V12.508C24.8267 12.5173 24.78 12.4987 24.696 12.452C24.528 12.368 24.2853 12.242 23.968 12.074L21.07 10.548C21.0047 10.5107 20.9347 10.5153 20.86 10.562L19.432 11.318C18.4613 11.8313 17.7287 12.214 17.234 12.466C17.2153 12.4847 17.1967 12.494 17.178 12.494C17.1313 12.5127 17.1173 12.4753 17.136 12.382L17.29 11.416C17.5327 10.0347 17.71 8.99867 17.822 8.308C17.8313 8.28933 17.8267 8.266 17.808 8.238C17.7987 8.20067 17.7847 8.17267 17.766 8.154L17.29 7.692C16.6647 7.08533 16.198 6.62333 15.89 6.306C15.6007 6.026 15.274 5.68067 14.91 5.27C14.882 5.242 14.8727 5.21867 14.882 5.2C14.8913 5.172 14.9147 5.15333 14.952 5.144L18.312 4.654C18.5733 4.60733 18.7693 4.57933 18.9 4.57C18.956 4.56067 18.998 4.54667 19.026 4.528C19.054 4.50933 19.082 4.472 19.11 4.416C19.894 2.81067 20.4867 1.60667 20.888 0.803999L20.93 0.733999C20.9393 0.715333 20.9533 0.706 20.972 0.706C20.9907 0.696666 21.0047 0.701333 21.014 0.719999C21.0327 0.738666 21.042 0.757333 21.042 0.776L22.848 4.43C22.8853 4.514 22.9507 4.56067 23.044 4.57L27.048 5.158C27.0853 5.158 27.1087 5.172 27.118 5.2C27.1273 5.21867 27.118 5.24667 27.09 5.284ZM41.09 5.284C40.9407 5.44267 40.7073 5.68067 40.39 5.998L40.348 6.04C39.5173 6.852 38.892 7.45867 38.472 7.86C38.3413 7.99067 38.2433 8.09333 38.178 8.168C38.1407 8.20533 38.122 8.26133 38.122 8.336L38.836 12.48V12.508C38.8267 12.5173 38.78 12.4987 38.696 12.452C38.528 12.368 38.2853 12.242 37.968 12.074L35.07 10.548C35.0047 10.5107 34.9347 10.5153 34.86 10.562L33.432 11.318C32.4613 11.8313 31.7287 12.214 31.234 12.466C31.2153 12.4847 31.1967 12.494 31.178 12.494C31.1313 12.5127 31.1173 12.4753 31.136 12.382L31.29 11.416C31.5327 10.0347 31.71 8.99867 31.822 8.308C31.8313 8.28933 31.8267 8.266 31.808 8.238C31.7987 8.20067 31.7847 8.17267 31.766 8.154L31.29 7.692C30.6647 7.08533 30.198 6.62333 29.89 6.306C29.6007 6.026 29.274 5.68067 28.91 5.27C28.882 5.242 28.8727 5.21867 28.882 5.2C28.8913 5.172 28.9147 5.15333 28.952 5.144L32.312 4.654C32.5733 4.60733 32.7693 4.57933 32.9 4.57C32.956 4.56067 32.998 4.54667 33.026 4.528C33.054 4.50933 33.082 4.472 33.11 4.416C33.894 2.81067 34.4867 1.60667 34.888 0.803999L34.93 0.733999C34.9393 0.715333 34.9533 0.706 34.972 0.706C34.9907 0.696666 35.0047 0.701333 35.014 0.719999C35.0327 0.738666 35.042 0.757333 35.042 0.776L36.848 4.43C36.8853 4.514 36.9507 4.56067 37.044 4.57L41.048 5.158C41.0853 5.158 41.1087 5.172 41.118 5.2C41.1273 5.21867 41.118 5.24667 41.09 5.284ZM55.09 5.284C54.9407 5.44267 54.7073 5.68067 54.39 5.998L54.348 6.04C53.5173 6.852 52.892 7.45867 52.472 7.86C52.3413 7.99067 52.2433 8.09333 52.178 8.168C52.1407 8.20533 52.122 8.26133 52.122 8.336L52.836 12.48V12.508C52.8267 12.5173 52.78 12.4987 52.696 12.452C52.528 12.368 52.2853 12.242 51.968 12.074L49.07 10.548C49.0047 10.5107 48.9347 10.5153 48.86 10.562L47.432 11.318C46.4613 11.8313 45.7287 12.214 45.234 12.466C45.2153 12.4847 45.1967 12.494 45.178 12.494C45.1313 12.5127 45.1173 12.4753 45.136 12.382L45.29 11.416C45.5327 10.0347 45.71 8.99867 45.822 8.308C45.8313 8.28933 45.8267 8.266 45.808 8.238C45.7987 8.20067 45.7847 8.17267 45.766 8.154L45.29 7.692C44.6647 7.08533 44.198 6.62333 43.89 6.306C43.6007 6.026 43.274 5.68067 42.91 5.27C42.882 5.242 42.8727 5.21867 42.882 5.2C42.8913 5.172 42.9147 5.15333 42.952 5.144L46.312 4.654C46.5733 4.60733 46.7693 4.57933 46.9 4.57C46.956 4.56067 46.998 4.54667 47.026 4.528C47.054 4.50933 47.082 4.472 47.11 4.416C47.894 2.81067 48.4867 1.60667 48.888 0.803999L48.93 0.733999C48.9393 0.715333 48.9533 0.706 48.972 0.706C48.9907 0.696666 49.0047 0.701333 49.014 0.719999C49.0327 0.738666 49.042 0.757333 49.042 0.776L50.848 4.43C50.8853 4.514 50.9507 4.56067 51.044 4.57L55.048 5.158C55.0853 5.158 55.1087 5.172 55.118 5.2C55.1273 5.21867 55.118 5.24667 55.09 5.284ZM69.09 5.284C68.9407 5.44267 68.7073 5.68067 68.39 5.998L68.348 6.04C67.5173 6.852 66.892 7.45867 66.472 7.86C66.3413 7.99067 66.2433 8.09333 66.178 8.168C66.1407 8.20533 66.122 8.26133 66.122 8.336L66.836 12.48V12.508C66.8267 12.5173 66.78 12.4987 66.696 12.452C66.528 12.368 66.2853 12.242 65.968 12.074L63.07 10.548C63.0047 10.5107 62.9347 10.5153 62.86 10.562L61.432 11.318C60.4613 11.8313 59.7287 12.214 59.234 12.466C59.2153 12.4847 59.1967 12.494 59.178 12.494C59.1313 12.5127 59.1173 12.4753 59.136 12.382L59.29 11.416C59.5327 10.0347 59.71 8.99867 59.822 8.308C59.8313 8.28933 59.8267 8.266 59.808 8.238C59.7987 8.20067 59.7847 8.17267 59.766 8.154L59.29 7.692C58.6647 7.08533 58.198 6.62333 57.89 6.306C57.6007 6.026 57.274 5.68067 56.91 5.27C56.882 5.242 56.8727 5.21867 56.882 5.2C56.8913 5.172 56.9147 5.15333 56.952 5.144L60.312 4.654C60.5733 4.60733 60.7693 4.57933 60.9 4.57C60.956 4.56067 60.998 4.54667 61.026 4.528C61.054 4.50933 61.082 4.472 61.11 4.416C61.894 2.81067 62.4867 1.60667 62.888 0.803999L62.93 0.733999C62.9393 0.715333 62.9533 0.706 62.972 0.706C62.9907 0.696666 63.0047 0.701333 63.014 0.719999C63.0327 0.738666 63.042 0.757333 63.042 0.776L64.848 4.43C64.8853 4.514 64.9507 4.56067 65.044 4.57L69.048 5.158C69.0853 5.158 69.1087 5.172 69.118 5.2C69.1273 5.21867 69.118 5.24667 69.09 5.284Z" fill="#FF9000"/>
</svg>
